#tb 0: 1001/30000
#media_type 0: video
#codec_id 0: rawvideo
#dimensions 0: 640x480
#sar 0: 0/1
0,          0,          0,        1,  1843200, 0xbd414b93
0,          1,          1,        1,  1843200, 0x23298f1f
0,          2,          2,        1,  1843200, 0x5a56df19
